<svg id="Icon_awesome-shopping-cart" data-name="Icon awesome-shopping-cart" xmlns="http://www.w3.org/2000/svg" width="25.666" height="22.814" viewBox="0 0 25.666 22.814">
  <defs>
    <style>
      .cls-1 {
        fill: #fff;
      }
    </style>
  </defs>
  <path id="Icon_awesome-shopping-cart-2" data-name="Icon awesome-shopping-cart" class="cls-1" d="M23.533,13.427l2.106-9.268A1.069,1.069,0,0,0,24.6,2.852H7.094l-.408-2A1.069,1.069,0,0,0,5.638,0H1.069A1.069,1.069,0,0,0,0,1.069v.713A1.069,1.069,0,0,0,1.069,2.852H4.183l3.13,15.3a2.5,2.5,0,1,0,2.987.382h9.342a2.495,2.495,0,1,0,2.834-.464l.246-1.082a1.069,1.069,0,0,0-1.043-1.306H9.719l-.292-1.426H22.49A1.069,1.069,0,0,0,23.533,13.427Z"/>
</svg>
